MarkerMocapFLsDeGroote.mot
version=1
nRows=27
nColumns=39
inDegrees=no
endheader
time	tibant_l	tibpost_l	gasmed_l	gaslat_l	soleus_l	edl_l	ehl_l	fdl_l	fhl_l	perbrev_l	perlong_l	bflh_l	bfsh_l	recfem_l	semimem_l	semiten_l	vasint_l	vaslat_l	vasmed_l	tibant_r	tibpost_r	gasmed_r	gaslat_r	soleus_r	edl_r	ehl_r	fdl_r	fhl_r	perbrev_r	perlong_r	bflh_r	bfsh_r	recfem_r	semimem_r	semiten_r	vasint_r	vaslat_r	vasmed_r
26.24000000	0.35631608	0.38601731	0.54619925	0.53507492	0.39808648	0.49696705	0.45637124	0.50062642	0.46810024	0.23983321	0.47464531	0.39221631	0.22779254	0.50800920	0.38704202	0.43362790	0.29070867	0.30337388	0.27971905	0.36632291	0.38355804	0.53624919	0.52709434	0.38847635	0.50521748	0.46501262	0.49842646	0.46464259	0.23789379	0.47238502	0.42552377	0.23279480	0.47843052	0.41839960	0.47061665	0.28066484	0.29362586	0.26978353
26.25000000	0.35589695	0.38609931	0.54645016	0.53490922	0.39843916	0.49662432	0.45601223	0.50069684	0.46822018	0.23990557	0.47473153	0.39161893	0.22713454	0.50911102	0.38610981	0.43259660	0.29187056	0.30456496	0.28087403	0.36627700	0.38357172	0.53628896	0.52695342	0.38852596	0.50517925	0.46497261	0.49843903	0.46466131	0.23790369	0.47239633	0.42476203	0.23241048	0.47940605	0.41763003	0.46967565	0.28151601	0.29440134	0.27061656
26.26000000	0.35555274	0.38616549	0.54660613	0.53464335	0.39872596	0.49634297	0.45571753	0.50075347	0.46831732	0.23996449	0.47480186	0.39102435	0.22643665	0.51022573	0.38515529	0.43154491	0.29306662	0.30579858	0.28206185	0.36639336	0.38353699	0.53613146	0.52661497	0.38840010	0.50527615	0.46507403	0.49840712	0.46461382	0.23787859	0.47236765	0.42396639	0.23201569	0.48040166	0.41683184	0.46870072	0.28237734	0.29519731	0.27146214
26.27000000	0.35530458	0.38621255	0.54664862	0.53426314	0.39893116	0.49614021	0.45550514	0.50079362	0.46838658	0.24000669	0.47485230	0.39043739	0.22570248	0.51134100	0.38418646	0.43048249	0.29428545	0.30706152	0.28327044	0.36680197	0.38341379	0.53562604	0.52595083	0.38795538	0.50561663	0.46543039	0.49829377	0.46444560	0.23778995	0.47226648	0.42317309	0.23165970	0.48133291	0.41605944	0.46775627	0.28314209	0.29591308	0.27221482
26.28000000	0.35517618	0.38623669	0.54655690	0.53375026	0.39903681	0.49603532	0.45539528	0.50081418	0.46842217	0.24002844	0.47487831	0.38986095	0.22493366	0.51244735	0.38320909	0.42941610	0.29551953	0.30834420	0.28449159	0.36757009	0.38317689	0.53468907	0.52488610	0.38710761	0.50625762	0.46610116	0.49807522	0.46412307	0.23762118	0.47207429	0.42240399	0.23137175	0.48215684	0.41534346	0.46687825	0.28375215	0.29648994	0.27281642
26.29000000	0.35519374	0.38623340	0.54630605	0.53308061	0.39902238	0.49604966	0.45541030	0.50081138	0.46841732	0.24002547	0.47487475	0.38929541	0.22412847	0.51354112	0.38222563	0.42834821	0.29676880	0.30964477	0.28572470	0.36863222	0.38283762	0.53338323	0.52347704	0.38590969	0.50714607	0.46703065	0.49776097	0.46366317	0.23738310	0.47180421	0.42166027	0.23114238	0.48289470	0.41467438	0.46605453	0.28423256	0.29694774	0.27329082
26.30000000	0.35538547	0.38619727	0.54586721	0.53222373	0.39886442	0.49620630	0.45557437	0.50078059	0.46836408	0.23999296	0.47483588	0.38873938	0.22328099	0.51462255	0.38123540	0.42727740	0.29803987	0.31096825	0.28697583	0.36978233	0.38245442	0.53193999	0.52193233	0.38457821	0.50811106	0.46803987	0.49740439	0.46314634	0.23711898	0.47150594	0.42092454	0.23092249	0.48362639	0.41400414	0.46522657	0.28468849	0.29738502	0.27374154
26.31000000	0.35578081	0.38612175	0.54520632	0.53114244	0.39853622	0.49652938	0.45591278	0.50071607	0.46825310	0.23992550	0.47475531	0.38819116	0.22238060	0.51569367	0.38023011	0.42619952	0.29934478	0.31232524	0.28825637	0.37075133	0.38211831	0.53068647	0.52056053	0.38342804	0.50892660	0.46889249	0.49709032	0.46269513	0.23689120	0.47124987	0.42017080	0.23064420	0.48445508	0.41326721	0.46431432	0.28525904	0.29793593	0.27430618
26.32000000	0.35640959	0.38599881	0.54416193	0.52979322	0.39800728	0.49704354	0.45645137	0.50061049	0.46807323	0.23981698	0.47462599	0.38764963	0.22141246	0.51675684	0.37920138	0.42509872	0.30069906	0.31372975	0.28958109	0.37132669	0.38191282	0.52989944	0.51962021	0.38273257	0.50941199	0.46939980	0.49689773	0.46242016	0.23675363	0.47109570	0.41937584	0.23025492	0.48545587	0.41241102	0.46325340	0.28604510	0.29870144	0.27508506
26.33000000	0.35729958	0.38581873	0.54257805	0.52812893	0.39724389	0.49777199	0.45721446	0.50045478	0.46781148	0.23966078	0.47444045	0.38711539	0.22035972	0.51781261	0.37814415	0.42396135	0.30211749	0.31519467	0.29096396	0.37143463	0.38187377	0.52968424	0.51922392	0.38260104	0.50950315	0.46949507	0.49686108	0.46236797	0.23672762	0.47106660	0.41852668	0.22974538	0.48663755	0.41141972	0.46202470	0.28705313	0.29969351	0.27608526
26.34000000	0.35847256	0.38557036	0.54062479	0.52610412	0.39621111	0.49873337	0.45822163	0.50023814	0.46745347	0.23945021	0.47419141	0.38659298	0.21920691	0.51885706	0.37705625	0.42278343	0.30360900	0.31672711	0.29241308	0.37113980	0.38198006	0.52996329	0.51930465	0.38295951	0.50925423	0.46923493	0.49696079	0.46251006	0.23679851	0.47114595	0.41762311	0.22915436	0.48794178	0.41031983	0.46066141	0.28819350	0.30082877	0.27721814
26.35000000	0.35993994	0.38524151	0.53826327	0.52368072	0.39487567	0.49993837	0.45948403	0.49994835	0.46698412	0.23917908	0.47387249	0.38609366	0.21794300	0.51987960	0.37594222	0.42156864	0.30517325	0.31832524	0.29392731	0.37058379	0.38217731	0.53055807	0.51971624	0.38362879	0.50878542	0.46874491	0.49714553	0.46277420	0.23693093	0.47129446	0.41667702	0.22855009	0.48927434	0.40916808	0.45923369	0.28932845	0.30197085	0.27834651
26.36000000	0.36169735	0.38482018	0.53546877	0.52083476	0.39321126	0.50138535	0.46099983	0.49957289	0.46638948	0.23884277	0.47347950	0.38563563	0.21656306	0.52086205	0.37481488	0.42032987	0.30679957	0.31997662	0.29549536	0.36991215	0.38241010	0.53129149	0.52025567	0.38442564	0.50822018	0.46815397	0.49736305	0.46308674	0.23708874	0.47147189	0.41570902	0.22800245	0.49054342	0.40803020	0.45782234	0.29033087	0.30298845	0.27934338
26.37000000	0.36371768	0.38429716	0.53224110	0.51756671	0.39120771	0.50305456	0.46274811	0.49910132	0.46566002	0.23843996	0.47301242	0.38524016	0.21506921	0.52178112	0.37369318	0.41908644	0.30846726	0.32165885	0.29709629	0.36922716	0.38264148	0.53204625	0.52073348	0.38522544	0.50764485	0.46755234	0.49757868	0.46339831	0.23724730	0.47165068	0.41474294	0.22756130	0.49168448	0.40696122	0.45649496	0.29112084	0.30379547	0.28012886
26.38000000	0.36594737	0.38366926	0.52861434	0.51391085	0.38888061	0.50490491	0.46468545	0.49852857	0.46479482	0.23797444	0.47247725	0.38492610	0.21347114	0.52261557	0.37259841	0.41785970	0.31015057	0.32334483	0.29870472	0.36857879	0.38285501	0.53277022	0.52126712	0.38597067	0.50710132	0.46698384	0.49777712	0.46368670	0.23739521	0.47181792	0.41380042	0.22724815	0.49266681	0.40599524	0.45529374	0.29167236	0.30436122	0.28067707
26.39000000	0.36831294	0.38294105	0.52465712	0.50993586	0.38627296	0.50687873	0.46675099	0.49785693	0.46380314	0.23745525	0.47188593	0.38470594	0.21178672	0.52335704	0.37155177	0.41667083	0.31182897	0.32501343	0.30030157	0.36797906	0.38304788	0.53345310	0.52183879	0.38664991	0.50659942	0.46645878	0.49795590	0.46394792	0.23753016	0.47197090	0.41289751	0.22705929	0.49348795	0.40514491	0.45423492	0.29200131	0.30469948	0.28100395
26.40000000	0.37073288	0.38212482	0.52046627	0.50573805	0.38345018	0.50891105	0.46887624	0.49709641	0.46270385	0.23689558	0.47125478	0.38458431	0.21004318	0.52400450	0.37057407	0.41554139	0.31348253	0.32664485	0.30186908	0.36741794	0.38322437	0.53410571	0.52244385	0.38727677	0.50613055	0.46596820	0.49811909	0.46418762	0.23765484	0.47211257	0.41204299	0.22697390	0.49416554	0.40440502	0.45331296	0.29214914	0.30485168	0.28115082
26.41000000	0.37312198	0.38124203	0.51616566	0.50144040	0.38050082	0.51093241	0.47098815	0.49626634	0.46152690	0.23631287	0.47060431	0.38455782	0.20827687	0.52456152	0.36968486	0.41449293	0.31509065	0.32821950	0.30338935	0.36687846	0.38339051	0.53474349	0.52307968	0.38787165	0.50568040	0.46549713	0.49827233	0.46441386	0.23777327	0.47224745	0.41123853	0.22696381	0.49472835	0.40375851	0.45250772	0.29216657	0.30486963	0.28116814
26.42000000	0.37538778	0.38032735	0.51191103	0.49719766	0.37754536	0.51286519	0.47300540	0.49539942	0.46031835	0.23573059	0.46996095	0.38461677	0.20652924	0.52502651	0.36890028	0.41354502	0.31662561	0.32971139	0.30483717	0.36635228	0.38354927	0.53537067	0.52373443	0.38844457	0.50524194	0.46503822	0.49841841	0.46463061	0.23788746	0.47237778	0.41048053	0.22700255	0.49520689	0.40318400	0.45179349	0.29209961	0.30480067	0.28110161
26.43000000	0.37742546	0.37943391	0.50789540	0.49320245	0.37474750	0.51461832	0.47483309	0.49454693	0.45914693	0.23518051	0.46935918	0.38474747	0.20483953	0.52539046	0.36823048	0.41271227	0.31805508	0.33109047	0.30618215	0.36584538	0.38369919	0.53597639	0.52438540	0.38898978	0.50482007	0.46459664	0.49855601	0.46483583	0.23799623	0.47250219	0.40976274	0.22707086	0.49562628	0.40266218	0.45114668	0.29198123	0.30467882	0.28098400
26.44000000	0.37911424	0.37863761	0.50435092	0.48968815	0.37232202	0.51608339	0.47635875	0.49378303	0.45810941	0.23470433	0.46884296	0.38493386	0.20323721	0.52564946	0.36767714	0.41200107	0.31935833	0.33233857	0.30740502	0.36537276	0.38383635	0.53654135	0.52500715	0.38949223	0.50442717	0.46418533	0.49868160	0.46502405	0.23809657	0.47261719	0.40907873	0.22715812	0.49600301	0.40217921	0.45054996	0.29182950	0.30452274	0.28083323
26.45000000	0.38032833	0.37803114	0.50152742	0.48690754	0.37051524	0.51714418	0.47746233	0.49319892	0.45732290	0.23434995	0.46846163	0.38515979	0.20173885	0.52580604	0.36723410	0.41140916	0.32052820	0.33345082	0.30849947	0.36494932	0.38395710	0.53704874	0.52558021	0.38993761	0.50407553	0.46381718	0.49879193	0.46519015	0.23818560	0.47271940	0.40842428	0.22726018	0.49634563	0.40172712	0.44999293	0.29165130	0.30433959	0.28065614
26.46000000	0.38097395	0.37769629	0.49962446	0.48506336	0.36953204	0.51771105	0.47805168	0.49287563	0.45688989	0.23415720	0.46825525	0.38541441	0.20035246	0.52586645	0.36689395	0.41093224	0.32156723	0.33443170	0.30946856	0.36458183	0.38406030	0.53749171	0.52609685	0.39032050	0.50377061	0.46349792	0.49888603	0.46533240	0.23826221	0.47280750	0.40779926	0.22737505	0.49665809	0.40130192	0.44947019	0.29144978	0.30413267	0.28045584
26.47000000	0.38103771	0.37766274	0.49870015	0.48421378	0.36943408	0.51776714	0.47810998	0.49284321	0.45684655	0.23413800	0.46823473	0.38569962	0.19908596	0.52583496	0.36665814	0.41057528	0.32248118	0.33528868	0.31031857	0.36426736	0.38414743	0.53787421	0.52655963	0.39064550	0.50350988	0.46322491	0.49896534	0.46545274	0.23832728	0.47288243	0.40720750	0.22750011	0.49694223	0.40090219	0.44897981	0.29122922	0.30390649	0.28023660
26.48000000	0.38061003	0.37788612	0.49862711	0.48422641	0.37008819	0.51739127	0.47771926	0.49305898	0.45713526	0.23426622	0.46837189	0.38603314	0.19795416	0.52570712	0.36654246	0.41035912	0.32327059	0.33602427	0.31105092	0.36399988	0.38422070	0.53820330	0.52697399	0.39092000	0.50328825	0.46299283	0.49903193	0.46555409	0.23838228	0.47294584	0.40665414	0.22763240	0.49719824	0.40052861	0.44852268	0.29099456	0.30366618	0.28000331
26.49000000	0.37986050	0.37826835	0.49914283	0.48482971	0.37121787	0.51673464	0.47703638	0.49342761	0.45763017	0.23448773	0.46860960	0.38644274	0.19698007	0.52547243	0.36657290	0.41031654	0.32393009	0.33663534	0.31166142	0.36377748	0.38428103	0.53848154	0.52734149	0.39114691	0.50310407	0.46279996	0.49908669	0.46563766	0.23842777	0.47299834	0.40614237	0.22777019	0.49742492	0.40018308	0.44810128	0.29074870	0.30341478	0.27975886
26.50000000	0.37897941	0.37870315	0.49995795	0.48572469	0.37251935	0.51596599	0.47623656	0.49384604	0.45819460	0.23474305	0.46888477	0.38695589	0.19618922	0.52512078	0.36677543	0.41048065	0.32445239	0.33711694	0.31214405	0.36360349	0.38432786	0.53870590	0.52765952	0.39132358	0.50296004	0.46264912	0.49912915	0.46570260	0.23846320	0.47303927	0.40567200	0.22791390	0.49762006	0.39986783	0.44771824	0.29049068	0.30315136	0.27950229
